trial_1_ID.mot
nRows=6
nColumns=42

name trial_1_ID.mot
datacolumns 42
datarows 6
range 2.3900000000 2.4400000000
endheader
time	pelvis_tilt_moment	pelvis_list_moment	pelvis_rotation_moment	pelvis_tx_force	pelvis_ty_force	pelvis_tz_force	hip_flexion_r_moment	hip_adduction_r_moment	hip_rotation_r_moment	knee_angle_r_moment	knee_vv_r_moment	knee_rot_r_moment	ankle_angle_r_moment	subtalar_angle_r_moment	mtp_angle_r_moment	hip_flexion_l_moment	hip_adduction_l_moment	hip_rotation_l_moment	knee_angle_l_moment	knee_vv_l_moment	knee_rot_l_moment	ankle_angle_l_moment	subtalar_angle_l_moment	mtp_angle_l_moment	lumbar_extension_moment	lumbar_bending_moment	lumbar_rotation_moment	arm_flex_r_moment	arm_add_r_moment	arm_rot_r_moment	elbow_flex_r_moment	pro_sup_r_moment	wrist_flex_r_moment	wrist_dev_r_moment	arm_flex_l_moment	arm_add_l_moment	arm_rot_l_moment	elbow_flex_l_moment	pro_sup_l_moment	wrist_flex_l_moment	wrist_dev_l_moment
        2.3900000000	      -12.5794843100	        5.1117395800	        2.2934847000	      -16.2596218400	       -8.9496555900	       14.1270676100	        7.7694471900	      -34.8838000100	        1.8863216200	      -15.0211882800	      -11.7504878500	       -0.3000447700	      -71.8825735500	       17.4537878800	        0.0257128000	       -8.9782392800	        1.8983649900	       -1.0013664800	       -4.2752145300	       -1.6090510600	        0.7869590100	        6.4059312600	       -0.8499867600	        0.0315663300	       13.5902232200	        1.4826650500	       -2.5125515900	       -1.0572063600	       -2.1071481600	        0.0922997200	       -0.3327265700	        0.0229406700	        0.0296799800	        0.0758435900	        0.5171677100	       -1.6821564500	       -0.0368051600	       -0.2476166500	       -0.0135597900	       -0.0474061000	       -0.0069395200	
        2.4000000000	      -11.8544284700	        5.2839829300	        2.8654658100	      -18.3396885100	       -6.7788614300	       15.0522625600	        8.0005195000	      -32.6993424000	        2.2505573000	      -14.5492104100	      -10.8406207200	        0.1673935300	      -70.6050526500	       17.1335015900	        0.0244510100	       -9.1512585500	        0.5542570600	       -0.9810348300	       -2.7363863200	       -0.9138431400	        0.8815481300	        7.1097955200	       -0.8972416600	        0.0397305600	       14.8144384300	        2.3451036000	       -1.9702911200	       -1.0566773200	       -2.0878774200	        0.1027371800	       -0.3129615300	        0.0239740400	        0.0324780300	        0.0746848800	        0.4407358300	       -1.6202647100	       -0.0368041100	       -0.2502853800	       -0.0131029600	       -0.0452003100	       -0.0061120400	
        2.4100000000	      -10.4039332300	        5.6998544500	        3.2933339900	      -20.1746236500	       -4.9070856300	       15.1251674200	        8.3766789800	      -29.9750308500	        2.6047637400	      -13.7267775700	       -9.7531137300	        0.6545755000	      -68.6110395400	       16.6121205600	        0.0226712600	       -9.5032755000	       -1.3587526100	       -0.8911113200	       -0.9971834000	        0.1383669200	        0.9773936200	        7.4754981200	       -0.8623757400	        0.0471064000	       16.5005980600	        3.1896311700	       -1.4751737600	       -1.0457069800	       -2.0570503900	        0.1107135700	       -0.2850009500	        0.0247198100	        0.0348054500	        0.0719960800	        0.3735048000	       -1.5684186100	       -0.0388755400	       -0.2521350500	       -0.0131088500	       -0.0435008200	       -0.0055571700	
        2.4200000000	       -8.2988788000	        6.5375125800	        3.4154224000	      -21.6902577600	       -3.2775575900	       14.0663997200	        8.8693976700	      -26.5947534500	        2.9296746300	      -12.5066595400	       -8.4567292700	        1.1564515600	      -65.8357616400	       15.8833428600	        0.0205131300	       -9.9525994800	       -3.8058710900	       -0.7133751000	        0.9961207600	        1.5262253500	        1.0740081300	        7.5105679500	       -0.7474069600	        0.0530844300	       18.5078995100	        4.0152895600	       -1.0799996200	       -1.0242947500	       -2.0199718700	        0.1141220700	       -0.2502620000	        0.0249811800	        0.0362156600	        0.0676464800	        0.3207824500	       -1.5325999700	       -0.0437346100	       -0.2539191900	       -0.0136882800	       -0.0423692000	       -0.0052578000	
        2.4300000000	       -5.7819030000	        7.9555591900	        3.1021929300	      -22.8518219700	       -1.6500373000	       11.6278678100	        9.4112875300	      -22.5004265500	        3.2002546300	      -10.8865534800	       -6.9366713900	        1.6639848000	      -62.2351615900	       14.9538321700	        0.0182461400	      -10.4330877600	       -6.7537409600	       -0.4368740400	        3.2693232200	        3.2187210200	        1.1715067600	        7.2670579700	       -0.5651753800	        0.0572222500	       20.6258239500	        4.8175278200	       -0.8247977300	       -0.9905268000	       -1.9808565500	        0.1111932500	       -0.2099905000	        0.0245540000	        0.0363321900	        0.0615632900	        0.2851942100	       -1.5158641500	       -0.0515908400	       -0.2562399000	       -0.0148312400	       -0.0417015700	       -0.0051576000	
        2.4400000000	       -3.2353645100	       10.0194328600	        2.2940767500	      -23.6642570500	        0.3033343600	        7.7602911000	        9.8979685600	      -17.7405632700	        3.3867375900	       -8.9235702300	       -5.2104368900	        2.1625664000	      -57.7998729500	       13.8443898100	        0.0162539600	      -10.9146804800	      -10.1580361900	       -0.0577627200	        5.8002716900	        5.1745085700	        1.2685719400	        6.8228432500	       -0.3346505100	        0.0592915200	       22.6114893200	        5.5894174200	       -0.7313084200	       -0.9429728300	       -1.9438589600	        0.1009406600	       -0.1661972500	        0.0232969700	        0.0348996900	        0.0538680400	        0.2662882000	       -1.5167477000	       -0.0620693600	       -0.2590479000	       -0.0164066600	       -0.0412252500	       -0.0052039300	
